REM DIRINDEX 1\2,1\3,1\4,1\5
REM DIRNAME folder01,folder02,folder03,folder04,folder05
TITLE ""
FILE "1Q_t_1951-1960.mp3" MP3
  TRACK 01 AUDIO
    TITLE "3:cjc004_6761"
    INDEX 01 00:00:00
  TRACK 02 AUDIO
    TITLE "0:"
    INDEX 01 00:01:15
  TRACK 03 AUDIO
    TITLE "4:cjc004_6762"
    INDEX 01 00:01:40
  TRACK 04 AUDIO
    TITLE "0:"
    INDEX 01 00:03:00
  TRACK 05 AUDIO
    TITLE "5:cjc004_6763"
    INDEX 01 00:03:19
  TRACK 06 AUDIO
    TITLE "0:"
    INDEX 01 00:07:54
  TRACK 07 AUDIO
    TITLE "3:cjc004_6764"
    INDEX 01 00:08:34
  TRACK 08 AUDIO
    TITLE "0:"
    INDEX 01 00:09:63
  TRACK 09 AUDIO
    TITLE "4:cjc004_6765"
    INDEX 01 00:10:12
  TRACK 10 AUDIO
    TITLE "0:"
    INDEX 01 00:11:27
  TRACK 11 AUDIO
    TITLE "5:cjc004_6766"
    INDEX 01 00:11:48
  TRACK 12 AUDIO
    TITLE "0:"
    INDEX 01 00:15:66
  TRACK 13 AUDIO
    TITLE "3:cjc004_6767"
    INDEX 01 00:16:46
  TRACK 14 AUDIO
    TITLE "0:"
    INDEX 01 00:17:63
  TRACK 15 AUDIO
    TITLE "4:cjc004_6768"
    INDEX 01 00:18:13
  TRACK 16 AUDIO
    TITLE "0:"
    INDEX 01 00:19:30
  TRACK 17 AUDIO
    TITLE "5:cjc004_6769"
    INDEX 01 00:19:54
  TRACK 18 AUDIO
    TITLE "0:"
    INDEX 01 00:23:36
  TRACK 19 AUDIO
    TITLE "3:cjc004_6770"
    INDEX 01 00:24:18
  TRACK 20 AUDIO
    TITLE "0:"
    INDEX 01 00:25:27
  TRACK 21 AUDIO
    TITLE "4:cjc004_6771"
    INDEX 01 00:25:52
  TRACK 22 AUDIO
    TITLE "0:"
    INDEX 01 00:26:67
  TRACK 23 AUDIO
    TITLE "5:cjc004_6772"
    INDEX 01 00:27:16
  TRACK 24 AUDIO
    TITLE "0:"
    INDEX 01 00:32:13
  TRACK 25 AUDIO
    TITLE "3:cjc004_6773"
    INDEX 01 00:32:62
  TRACK 26 AUDIO
    TITLE "0:"
    INDEX 01 00:34:18
  TRACK 27 AUDIO
    TITLE "4:cjc004_6774"
    INDEX 01 00:34:43
  TRACK 28 AUDIO
    TITLE "0:"
    INDEX 01 00:35:66
  TRACK 29 AUDIO
    TITLE "5:cjc004_6775"
    INDEX 01 00:36:17
  TRACK 30 AUDIO
    TITLE "0:"
    INDEX 01 00:41:24
  TRACK 31 AUDIO
    TITLE "3:cjc004_6776"
    INDEX 01 00:42:04
  TRACK 32 AUDIO
    TITLE "0:"
    INDEX 01 00:43:27
  TRACK 33 AUDIO
    TITLE "4:cjc004_6777"
    INDEX 01 00:43:50
  TRACK 34 AUDIO
    TITLE "0:"
    INDEX 01 00:45:45
  TRACK 35 AUDIO
    TITLE "5:cjc004_6778"
    INDEX 01 00:45:69
  TRACK 36 AUDIO
    TITLE "0:"
    INDEX 01 00:50:01
  TRACK 37 AUDIO
    TITLE "3:cjc004_6779"
    INDEX 01 00:50:46
  TRACK 38 AUDIO
    TITLE "0:"
    INDEX 01 00:51:58
  TRACK 39 AUDIO
    TITLE "4:cjc004_6780"
    INDEX 01 00:52:12
  TRACK 40 AUDIO
    TITLE "0:"
    INDEX 01 00:53:60
  TRACK 41 AUDIO
    TITLE "5:cjc004_6781"
    INDEX 01 00:54:11
  TRACK 42 AUDIO
    TITLE "0:"
    INDEX 01 00:59:24
  TRACK 43 AUDIO
    TITLE "3:cjc004_6782"
    INDEX 01 01:00:06
  TRACK 44 AUDIO
    TITLE "0:"
    INDEX 01 01:01:19
  TRACK 45 AUDIO
    TITLE "4:cjc004_6783"
    INDEX 01 01:01:40
  TRACK 46 AUDIO
    TITLE "0:"
    INDEX 01 01:03:18
  TRACK 47 AUDIO
    TITLE "5:cjc004_6784"
    INDEX 01 01:03:43
  TRACK 48 AUDIO
    TITLE "0:"
    INDEX 01 01:08:15
  TRACK 49 AUDIO
    TITLE "3:cjc004_6785"
    INDEX 01 01:08:62
  TRACK 50 AUDIO
    TITLE "0:"
    INDEX 01 01:10:06
  TRACK 51 AUDIO
    TITLE "4:cjc004_6786"
    INDEX 01 01:10:31
  TRACK 52 AUDIO
    TITLE "0:"
    INDEX 01 01:11:52
  TRACK 53 AUDIO
    TITLE "5:cjc004_6787"
    INDEX 01 01:11:72
  TRACK 54 AUDIO
    TITLE "0:"
    INDEX 01 01:16:42
  TRACK 55 AUDIO
    TITLE "3:cjc004_6788"
    INDEX 01 01:17:20
  TRACK 56 AUDIO
    TITLE "0:"
    INDEX 01 01:18:15
  TRACK 57 AUDIO
    TITLE "4:cjc004_6789"
    INDEX 01 01:18:49
  TRACK 58 AUDIO
    TITLE "0:"
    INDEX 01 01:19:54
  TRACK 59 AUDIO
    TITLE "5:cjc004_6790"
    INDEX 01 01:20:02
  TRACK 60 AUDIO
    TITLE "0:"
    INDEX 01 01:24:63
